<?xml version="1.0" encoding="utf-8"?>
<!-- Generator: Adobe Illustrator 23.0.1, SVG Export Plug-In . SVG Version: 6.00 Build 0)  -->
<svg version="1.1" id="Lager_1" xmlns="http://www.w3.org/2000/svg" xmlns:xlink="http://www.w3.org/1999/xlink" x="0px" y="0px"
	 viewBox="0 0 595.3 841.9" style="enable-background:new 0 0 595.3 841.9;" xml:space="preserve">
<style type="text/css">
	.st0{fill:#FFFFFF;stroke:#000000;stroke-miterlimit:10;}
	.st1{fill:#F9EF81;stroke:#000000;stroke-miterlimit:10;}
	.st2{fill:#E84826;stroke:#000000;stroke-miterlimit:10;}
	.st3{fill:#FFE8BF;stroke:#000000;stroke-miterlimit:10;}
	.st4{fill:#E6381E;stroke:#000000;stroke-miterlimit:10;}
	.st5{fill:#D46613;stroke:#000000;stroke-miterlimit:10;}
</style>
<path class="st0" d="M44,477"/>
<ellipse class="st1" cx="339" cy="390" rx="205" ry="201"/>
<ellipse class="st2" cx="339" cy="390" rx="181.5" ry="177"/>
<circle class="st3" cx="339" cy="390" r="167.8"/>
<circle class="st4" cx="256.5" cy="293.5" r="17.5"/>
<circle class="st4" cx="380.8" cy="276.8" r="16.8"/>
<circle class="st4" cx="326.5" cy="367.5" r="12.5"/>
<circle class="st4" cx="393.8" cy="417.1" r="13.1"/>
<circle class="st4" cx="461.9" cy="381.4" r="13.9"/>
<circle class="st4" cx="223" cy="416" r="12"/>
<circle class="st4" cx="312.1" cy="477.4" r="14.4"/>
<circle class="st4" cx="419.7" cy="510.8" r="12.8"/>
<ellipse class="st4" cx="462.5" cy="447" rx="14.5" ry="11"/>
<path class="st5" d="M228,340l-12,21h33l-8-21h13c-12.7-13.3-25.3-13.3-38,0H228z"/>
<path class="st5" d="M364,457.5l-12,21h33l-8-21h13c-12.7-13.3-25.3-13.3-38,0H364z"/>
<path class="st5" d="M399.9,328.3l-12,21h33l-8-21h13c-12.7-13.3-25.3-13.3-38,0H399.9z"/>
<path class="st5" d="M326,288l-12,21h33l-8-21h13c-12.7-13.3-25.3-13.3-38,0H326z"/>
<path class="st5" d="M345,514l-12,21h33l-8-21h13c-12.7-13.3-25.3-13.3-38,0H345z"/>
<path class="st5" d="M278,406l-12,21h33l-8-21h13c-12.7-13.3-25.3-13.3-38,0H278z"/>
<path class="st5" d="M240,471.5l-12,21h33l-8-21h13c-12.7-13.3-25.3-13.3-38,0H240z"/>
<path class="st5" d="M444.4,305.5l-12,21h33l-8-21h13c-12.7-13.3-25.3-13.3-38,0H444.4z"/>
</svg>
